<svg width="12" height="14" viewBox="0 0 12 14" fill="none" xmlns="http://www.w3.org/2000/svg">
<path fill-rule="evenodd" clip-rule="evenodd" d="M6 0C5.07174 0 4.1815 0.368749 3.52513 1.02513C2.86875 1.6815 2.5 2.57174 2.5 3.5V5.5C1.96957 5.5 1.46086 5.71071 1.08579 6.08579C0.710714 6.46086 0.5 6.96957 0.5 7.5V12C0.5 12.5304 0.710714 13.0391 1.08579 13.4142C1.46086 13.7893 1.96957 14 2.5 14H9.5C10.0304 14 10.5391 13.7893 10.9142 13.4142C11.2893 13.0391 11.5 12.5304 11.5 12V7.5C11.5 6.96957 11.2893 6.46086 10.9142 6.08579C10.5391 5.71071 10.0304 5.5 9.5 5.5V3.5C9.5 1.56667 7.93333 0 6 0ZM8.5 5.5V3.5C8.5 2.83696 8.23661 2.20107 7.76777 1.73223C7.29893 1.26339 6.66304 1 6 1C5.33696 1 4.70107 1.26339 4.23223 1.73223C3.76339 2.20107 3.5 2.83696 3.5 3.5V5.5H8.5Z" fill="#8C8C8C"/>
</svg>
