<svg width="23" height="23" viewBox="0 0 23 23" fill="none" xmlns="http://www.w3.org/2000/svg">
<path d="M11.5001 13.4167C10.7015 13.4167 10.0227 13.1371 9.46362 12.5781C8.9046 12.0191 8.62508 11.3403 8.62508 10.5417V4.79166C8.62508 3.99305 8.9046 3.31423 9.46362 2.7552C10.0227 2.19617 10.7015 1.91666 11.5001 1.91666C12.2987 1.91666 12.9775 2.19617 13.5365 2.7552C14.0956 3.31423 14.3751 3.99305 14.3751 4.79166V10.5417C14.3751 11.3403 14.0956 12.0191 13.5365 12.5781C12.9775 13.1371 12.2987 13.4167 11.5001 13.4167ZM10.5417 20.125V17.1781C8.88064 16.9545 7.50703 16.2118 6.42091 14.95C5.3348 13.6882 4.79175 12.2187 4.79175 10.5417H6.70841C6.70841 11.8674 7.1756 12.9974 8.10998 13.9318C9.04435 14.8661 10.1744 15.3333 11.5001 15.3333C12.8258 15.3333 13.9558 14.8661 14.8902 13.9318C15.8246 12.9974 16.2917 11.8674 16.2917 10.5417H18.2084C18.2084 12.2187 17.6654 13.6882 16.5792 14.95C15.4931 16.2118 14.1195 16.9545 12.4584 17.1781V20.125H10.5417ZM11.5001 11.5C11.7716 11.5 11.9992 11.4082 12.1829 11.2245C12.3666 11.0408 12.4584 10.8132 12.4584 10.5417V4.79166C12.4584 4.52013 12.3666 4.29252 12.1829 4.10884C11.9992 3.92516 11.7716 3.83332 11.5001 3.83332C11.2286 3.83332 11.0009 3.92516 10.8173 4.10884C10.6336 4.29252 10.5417 4.52013 10.5417 4.79166V10.5417C10.5417 10.8132 10.6336 11.0408 10.8173 11.2245C11.0009 11.4082 11.2286 11.5 11.5001 11.5Z" fill="#8C8C8C"/>
</svg>
