<svg width="16" height="16" viewBox="0 0 16 16" fill="none" xmlns="http://www.w3.org/2000/svg">
<path d="M1.33325 7.33333C1.33325 4.81918 1.33325 3.5621 2.1143 2.78105C2.89535 2 4.15243 2 6.66658 2H9.33325C11.8474 2 13.1045 2 13.8855 2.78105C14.6666 3.5621 14.6666 4.81918 14.6666 7.33333V8.66667C14.6666 11.1808 14.6666 12.4379 13.8855 13.219C13.1045 14 11.8474 14 9.33325 14H6.66658C4.15243 14 2.89535 14 2.1143 13.219C1.33325 12.4379 1.33325 11.1808 1.33325 8.66667V7.33333Z" stroke="white" stroke-width="1.5"/>
<path d="M10 14L10 2" stroke="white" stroke-width="1.5" stroke-linecap="round"/>
</svg>
