<svg width="16" height="16" viewBox="0 0 16 16" fill="none" xmlns="http://www.w3.org/2000/svg">
<path d="M12.784 1.44199C12.7478 1.2606 12.6498 1.09738 12.5068 0.98009C12.3638 0.862804 12.1845 0.798706 11.9995 0.798706C11.8146 0.798706 11.6353 0.862804 11.4923 0.98009C11.3492 1.09738 11.2513 1.2606 11.215 1.44199L11.024 2.39499C10.9931 2.55 10.9169 2.69237 10.8052 2.80414C10.6934 2.91591 10.551 2.99206 10.396 3.02299L9.44302 3.21299C9.26109 3.24873 9.09721 3.34655 8.97942 3.48974C8.86162 3.63292 8.79722 3.81258 8.79722 3.99799C8.79722 4.1834 8.86162 4.36306 8.97942 4.50625C9.09721 4.64943 9.26109 4.74725 9.44302 4.78299L10.396 4.97299C10.5512 5.00399 10.6936 5.08029 10.8054 5.19225C10.9172 5.30421 10.9933 5.4468 11.024 5.60199L11.214 6.55499C11.2498 6.73693 11.3476 6.9008 11.4908 7.0186C11.634 7.1364 11.8136 7.2008 11.999 7.2008C12.1844 7.2008 12.3641 7.1364 12.5073 7.0186C12.6505 6.9008 12.7483 6.73693 12.784 6.55499L12.974 5.60199C13.005 5.44685 13.0813 5.30438 13.1933 5.1926C13.3052 5.08082 13.4478 5.00474 13.603 4.97399L14.556 4.78399C14.738 4.74825 14.9018 4.65043 15.0196 4.50725C15.1374 4.36406 15.2018 4.1844 15.2018 3.99899C15.2018 3.81358 15.1374 3.63392 15.0196 3.49074C14.9018 3.34755 14.738 3.24973 14.556 3.21399L13.603 3.02399C13.4479 2.99299 13.3054 2.91669 13.1936 2.80473C13.0819 2.69277 13.0058 2.55018 12.975 2.39499L12.784 1.44199ZM5.55902 4.54599C5.50618 4.3863 5.40435 4.24733 5.268 4.14883C5.13166 4.05033 4.96773 3.99731 4.79952 3.99731C4.63132 3.99731 4.46739 4.05033 4.33104 4.14883C4.1947 4.24733 4.09286 4.3863 4.04002 4.54599L3.49402 6.18599C3.45478 6.30412 3.38852 6.41146 3.3005 6.49947C3.21249 6.58749 3.10515 6.65375 2.98702 6.69299L1.34702 7.23899C1.18733 7.29183 1.04836 7.39366 0.94986 7.53001C0.851358 7.66636 0.79834 7.83028 0.79834 7.99849C0.79834 8.1667 0.851358 8.33062 0.94986 8.46697C1.04836 8.60332 1.18733 8.70515 1.34702 8.75799L2.98702 9.30499C3.10493 9.34403 3.21214 9.40999 3.30014 9.49764C3.38814 9.5853 3.45452 9.69223 3.49402 9.80999L4.04002 11.451C4.09286 11.6107 4.1947 11.7497 4.33104 11.8482C4.46739 11.9467 4.63132 11.9997 4.79952 11.9997C4.96773 11.9997 5.13166 11.9467 5.268 11.8482C5.40435 11.7497 5.50618 11.6107 5.55902 11.451L6.10502 9.81099C6.14416 9.69297 6.21028 9.5857 6.29811 9.49769C6.38594 9.40969 6.49308 9.34336 6.61102 9.30399L8.25202 8.75799C8.41171 8.70515 8.55069 8.60332 8.64919 8.46697C8.74769 8.33062 8.80071 8.1667 8.80071 7.99849C8.80071 7.83028 8.74769 7.66636 8.64919 7.53001C8.55069 7.39366 8.41171 7.29183 8.25202 7.23899L6.61202 6.69299C6.49401 6.65385 6.38674 6.58774 6.29873 6.4999C6.21072 6.41207 6.1444 6.30493 6.10502 6.18699L5.55902 4.54599ZM11.159 10.946C11.1062 10.7863 11.0044 10.6473 10.868 10.5488C10.7317 10.4503 10.5677 10.3973 10.3995 10.3973C10.2313 10.3973 10.0674 10.4503 9.93104 10.5488C9.7947 10.6473 9.69287 10.7863 9.64002 10.946L9.49302 11.386C9.45398 11.5039 9.38803 11.6111 9.30037 11.6991C9.21272 11.7871 9.10578 11.8535 8.98802 11.893L8.54702 12.039C8.38733 12.0918 8.24836 12.1937 8.14986 12.33C8.05136 12.4664 7.99834 12.6303 7.99834 12.7985C7.99834 12.9667 8.05136 13.1306 8.14986 13.267C8.24836 13.4033 8.38733 13.5051 8.54702 13.558L8.98702 13.704C9.10504 13.7431 9.21231 13.8092 9.30032 13.8971C9.38833 13.9849 9.45465 14.092 9.49402 14.21L9.64002 14.651C9.69287 14.8107 9.7947 14.9497 9.93104 15.0482C10.0674 15.1467 10.2313 15.1997 10.3995 15.1997C10.5677 15.1997 10.7317 15.1467 10.868 15.0482C11.0044 14.9497 11.1062 14.8107 11.159 14.651L11.306 14.211C11.3452 14.093 11.4113 13.9857 11.4991 13.8977C11.5869 13.8097 11.6941 13.7434 11.812 13.704L12.252 13.558C12.4117 13.5051 12.5507 13.4033 12.6492 13.267C12.7477 13.1306 12.8007 12.9667 12.8007 12.7985C12.8007 12.6303 12.7477 12.4664 12.6492 12.33C12.5507 12.1937 12.4117 12.0918 12.252 12.039L11.812 11.892C11.6941 11.853 11.5869 11.787 11.4989 11.6993C11.4109 11.6117 11.3445 11.5047 11.305 11.387L11.159 10.946Z" fill="#8C8C8C"/>
</svg>
