<svg width="151" height="151" viewBox="0 0 151 151" fill="none" xmlns="http://www.w3.org/2000/svg">
<rect width="151" height="151" fill="#F7F6F6"/>
<path d="M100.667 100.667L75.5001 75.5M75.5001 75.5L50.3334 100.667M75.5001 75.5V132.125M128.287 115.704C134.424 112.358 139.271 107.065 142.065 100.658C144.859 94.2515 145.44 87.097 143.716 80.3238C141.992 73.5506 138.061 67.5443 132.545 63.253C127.028 58.9617 120.239 56.6297 113.25 56.625H105.323C103.418 49.259 99.8687 42.4206 94.941 36.6238C90.0133 30.827 83.8355 26.2228 76.8723 23.1572C69.909 20.0916 62.3413 18.6445 54.7383 18.9246C47.1352 19.2048 39.6946 21.2048 32.9758 24.7745C26.257 28.3442 20.4348 33.3906 15.9471 39.5342C11.4593 45.6779 8.42265 52.759 7.06547 60.2452C5.70829 67.7314 6.06588 75.4279 8.11136 82.756C10.1568 90.0841 13.837 96.8531 18.8751 102.554" stroke="#1E1E1E" stroke-width="4" stroke-linecap="round" stroke-linejoin="round"/>
</svg>
