<svg width="14" height="16" viewBox="0 0 14 16" fill="none" xmlns="http://www.w3.org/2000/svg">
<path d="M8.58589 1.52599C8.61336 1.39676 8.59742 1.26208 8.54053 1.14285C8.48364 1.02361 8.38899 0.926481 8.27126 0.866534C8.15353 0.806587 8.01931 0.787172 7.88941 0.811302C7.75952 0.835432 7.64123 0.901758 7.55289 0.999988L0.752884 8.59999C0.67568 8.68631 0.625104 8.79312 0.607262 8.90755C0.58942 9.02197 0.605073 9.13911 0.652332 9.24484C0.699591 9.35056 0.776437 9.44035 0.873597 9.50337C0.970756 9.56639 1.08408 9.59995 1.19988 9.59999H6.45788L5.41388 14.474C5.38641 14.6032 5.40235 14.7379 5.45924 14.8571C5.51613 14.9764 5.61078 15.0735 5.72851 15.1334C5.84624 15.1934 5.98046 15.2128 6.11035 15.1887C6.24025 15.1645 6.35854 15.0982 6.44688 15L13.2469 7.39999C13.3241 7.31367 13.3747 7.20685 13.3925 7.09243C13.4103 6.978 13.3947 6.86086 13.3474 6.75514C13.3002 6.64941 13.2233 6.55962 13.1262 6.4966C13.029 6.43358 12.9157 6.40003 12.7999 6.39999H7.54188L8.58589 1.52599Z" fill="#1ABC7A"/>
</svg>
